<svg xmlns="http://www.w3.org/2000/svg" width="31.938" height="32" viewBox="0 0 31.938 32">
  <defs>
    <style>
      .cls-1 {
        fill: #2980b9;
        fill-rule: evenodd;
      }
    </style>
  </defs>
  <path id="bubble" class="cls-1" d="M673.74,348.021a15.992,15.992,0,1,1-21.715,6.176A16.044,16.044,0,0,1,673.74,348.021Zm-0.928,1.74a14,14,0,1,1-19.076,5.4A13.992,13.992,0,0,1,672.812,349.761Zm-20.367,27.358,1.649-6.285,4.487,4.181-6.136,2.1M660,356h12v2H660v-2Zm0,5h12v2H660v-2Zm0,5h12v2H660v-2Z" transform="translate(-650 -346)"/>
</svg>
