<svg xmlns="http://www.w3.org/2000/svg" width="32.062" height="31.938" viewBox="0 0 32.062 31.938">
  <defs>
    <style>
      .cls-1 {
        fill: #2980b9;
        fill-rule: evenodd;
      }
    </style>
  </defs>
  <path id="headphones" class="cls-1" d="M152.977,543.969h2.006s-2.006-21.938,11.032-21.938,11,23,11,23h2.038S182.062,520,166.015,520,152.977,543.969,152.977,543.969Zm24.733-.631a4.3,4.3,0,1,1-4.311,4.3A4.3,4.3,0,0,1,177.71,543.338Zm0,2.3a2.133,2.133,0,1,1-2.138,2.133A2.136,2.136,0,0,1,177.705,545.633Zm-23.439-2.3a4.3,4.3,0,1,1-4.311,4.3A4.3,4.3,0,0,1,154.266,543.338Zm0,2.3a2.133,2.133,0,1,1-2.139,2.133A2.136,2.136,0,0,1,154.262,545.633Z" transform="translate(-149.969 -520)"/>
</svg>
