<svg xmlns="http://www.w3.org/2000/svg" width="32.031" height="31.938" viewBox="0 0 32.031 31.938">
  <defs>
    <style>
      .cls-1 {
        fill: #2980b9;
        fill-rule: evenodd;
      }
    </style>
  </defs>
  <path id="musical_note" data-name="musical note" class="cls-1" d="M154.438,900.994a4.471,4.471,0,1,1-4.484,4.47A4.477,4.477,0,0,1,154.438,900.994Zm0.12,2.045a2.429,2.429,0,1,1-2.436,2.429A2.433,2.433,0,0,1,154.558,903.039Zm22.948-2.045a4.471,4.471,0,1,1-4.484,4.47A4.476,4.476,0,0,1,177.506,900.994Zm0.12,2.045a2.429,2.429,0,1,1-2.437,2.429A2.432,2.432,0,0,1,177.626,903.039ZM157.93,903h-2.006V884L181,878v26l-2.006-2V881l-21.061,5v17Z" transform="translate(-149.969 -878)"/>
</svg>
