<svg xmlns="http://www.w3.org/2000/svg" width="32" height="32" viewBox="0 0 32 32">
  <defs>
    <style>
      .cls-1 {
        fill: #2980b9;
        fill-rule: evenodd;
      }
    </style>
  </defs>
  <path id="padlock" class="cls-1" d="M655,891.115l2-.021s-2-11.063,9-11.063c10.969,0,8.969,11,8.969,11H677S679,878,666,878,655,891.115,655,891.115ZM650,891h32v19H650V891Zm2,2h28v15.062H652V893Zm14.469,3.031a4.469,4.469,0,1,1-4.5,4.469A4.485,4.485,0,0,1,666.469,896.031Zm0.078,2a2.5,2.5,0,1,1-2.547,2.5A2.524,2.524,0,0,1,666.547,898.031Z" transform="translate(-650 -878)"/>
</svg>
