<svg xmlns="http://www.w3.org/2000/svg" width="31.969" height="32" viewBox="0 0 31.969 32">
  <defs>
    <style>
      .cls-1 {
        fill: #2980b9;
        fill-rule: evenodd;
      }
    </style>
  </defs>
  <path id="pencil" class="cls-1" d="M673.539,522.109l6.37,6.369-1.725,1.725-6.37-6.369Zm8.468-2.1-9.319,1.339,7.973,7.934,1.346-9.273m-2.437,2.512-4.417,1.236,3.182,3.182,1.235-4.418m-21.748,15.306,6.369,6.37L662.384,546l-6.369-6.37Zm0.1,14.175,22.755-22.755-1.487-1.487-22.755,22.755Zm-7.906-7.906L657.922,552l1.725-1.725-7.906-7.906Zm0,0,1.586,1.586,22.755-22.754-1.586-1.587Z" transform="translate(-650.031 -520)"/>
</svg>
