<svg xmlns="http://www.w3.org/2000/svg" width="32" height="32" viewBox="0 0 32 32">
  <defs>
    <style>
      .cls-1 {
        fill: #2980b9;
        fill-rule: evenodd;
      }
    </style>
  </defs>
  <path id="sunny" class="cls-1" d="M666,710.633a9.38,9.38,0,1,1-9.379,9.379A9.379,9.379,0,0,1,666,710.633Zm-1.655-3.323h3.31L666,704Zm0,25.38h3.31L666,736Zm6.566-24.507,2.867,1.655L674,706.144Zm-12.689,21.979,2.867,1.655L658,733.856Zm17.94-17.94,1.655,2.866L679.856,712Zm-21.979,12.689,1.655,2.867-3.694.222Zm24.507-6.566v3.31L682,720Zm-25.38,0v3.31L650,720Zm24.507,6.566-1.655,2.867L679.856,728Zm-21.979-12.689-1.655,2.866L652.144,712Zm17.94,17.94-2.867,1.655L674,733.856Zm-12.689-21.979-2.867,1.655L658,706.144ZM666,712.806a7.092,7.092,0,1,1-7,7.091A7.047,7.047,0,0,1,666,712.806Z" transform="translate(-650 -704)"/>
</svg>
