<svg xmlns="http://www.w3.org/2000/svg" width="32.094" height="32" viewBox="0 0 32.094 32">
  <defs>
    <style>
      .cls-1 {
        fill: #2980b9;
        fill-rule: evenodd;
      }
    </style>
  </defs>
  <path id="user" class="cls-1" d="M182,378H150s0-8.031,6-8.031,7-1.3,7-1.721v-3.217h6v3.217c0,0.333.937,1.721,6.969,1.721C182.093,369.969,182,378,182,378Zm-3-1.969H153s0-4,4-4c5.256,0,8-1.51,8-2.817V367h2v2.214c0,1.473,2.717,2.817,8,2.817C179,372.031,179,376.031,179,376.031ZM166,346c4.418,0,8,4.7,8,10.5s-3.582,10.5-8,10.5-8-4.7-8-10.5S161.582,346,166,346Zm-0.016,2.031c3.3,0,5.985,3.806,5.985,8.5s-2.68,8.5-5.985,8.5-5.984-3.805-5.984-8.5S162.679,348.031,165.984,348.031Z" transform="translate(-150 -346)"/>
</svg>
